HIERARCHY
ROOT Hips
{
	OFFSET 0.000000 0.000000 0.000000
	CHANNELS 6 Xposition Yposition Zposition Xrotation Yrotation Zrotation
	JOINT LeftUpLeg_virtual
	{
		OFFSET 0.000000 0.000000 0.000000
		CHANNELS 3 Xrotation Yrotation Zrotation
		JOINT LeftUpLeg
		{
			OFFSET 13.026900 -6.336304 -1.092800
			CHANNELS 3 Xrotation Yrotation Zrotation
			JOINT LeftLeg
			{
				OFFSET 0.524474 -46.096886 9.782700
				CHANNELS 3 Xrotation Yrotation Zrotation
				JOINT LeftFoot
				{
					OFFSET -0.524474 -53.427422 -12.948200
					CHANNELS 3 Xrotation Yrotation Zrotation
					JOINT LeftToeBase
					{
						OFFSET 0.192200 -14.009700 16.364100
						CHANNELS 3 Xrotation Yrotation Zrotation
						JOINT LeftToe_End
						{
							OFFSET -1.784700 -0.561700 9.474800
							CHANNELS 3 Xrotation Yrotation Zrotation
							End Site
							{
								OFFSET 0 0 0
							}
						}
					}
				}
			}
		}
	}
	JOINT RightUpLeg_virtual
	{
		OFFSET 0.000000 0.000000 0.000000
		CHANNELS 3 Xrotation Yrotation Zrotation
		JOINT RightUpLeg
		{
			OFFSET -12.883000 -6.336304 -1.092800
			CHANNELS 3 Xrotation Yrotation Zrotation
			JOINT RightLeg
			{
				OFFSET -0.524587 -46.096825 9.782800
				CHANNELS 3 Xrotation Yrotation Zrotation
				JOINT RightFoot
				{
					OFFSET 0.524587 -53.427383 -12.948300
					CHANNELS 3 Xrotation Yrotation Zrotation
					JOINT RightToeBase
					{
						OFFSET -0.192200 -14.009700 16.364100
						CHANNELS 3 Xrotation Yrotation Zrotation
						JOINT RightToe_End
						{
							OFFSET 1.784700 -0.561700 9.474800
							CHANNELS 3 Xrotation Yrotation Zrotation
							End Site
							{
								OFFSET 0 0 0
							}
						}
					}
				}
			}
		}
	}
	JOINT Spine_virtual
	{
		OFFSET 0.000000 0.000000 0.000000
		CHANNELS 3 Xrotation Yrotation Zrotation
		JOINT Spine
		{
			OFFSET 0.072000 7.257294 -0.789700
			CHANNELS 3 Xrotation Yrotation Zrotation
			JOINT Spine1
			{
				OFFSET 0.000000 12.508769 -0.658067
				CHANNELS 3 Xrotation Yrotation Zrotation
				JOINT Spine1_split
				{
					OFFSET 0.000000 12.508769 -0.658067
					CHANNELS 3 Xrotation Yrotation Zrotation
					JOINT Spine2
					{
						OFFSET 0.000000 12.508769 -0.658067
						CHANNELS 3 Xrotation Yrotation Zrotation
						JOINT Neck_virtual
						{
							OFFSET 0.000000 0.000000 0.000000
							CHANNELS 3 Xrotation Yrotation Zrotation
							JOINT Neck
							{
								OFFSET 0.000000 14.033295 7.520400
								CHANNELS 3 Xrotation Yrotation Zrotation
								JOINT Head
								{
									OFFSET 0.000000 8.198502 5.703100
									CHANNELS 3 Xrotation Yrotation Zrotation
									JOINT HeadTop_End
									{
										OFFSET 0.000000 17.760803 13.332701
										CHANNELS 3 Xrotation Yrotation Zrotation
										End Site
										{
											OFFSET 0 0 0
										}
									}
								}
							}
						}
						JOINT LeftShoulder_virtual
						{
							OFFSET 0.000000 0.000000 0.000000
							CHANNELS 3 Xrotation Yrotation Zrotation
							JOINT LeftShoulder
							{
								OFFSET 6.292450 5.785301 -0.669000
								CHANNELS 3 Xrotation Yrotation Zrotation
								JOINT LeftShoulder_split
								{
									OFFSET 6.292450 5.785301 -0.669000
									CHANNELS 3 Xrotation Yrotation Zrotation
									JOINT LeftArm
									{
										OFFSET 13.907140 -6.093903 1.965100
										CHANNELS 3 Xrotation Yrotation Zrotation
										JOINT LeftForeArm
										{
											OFFSET 34.140198 0.000000 0.000000
											CHANNELS 3 Xrotation Yrotation Zrotation
											JOINT LeftHand
											{
												OFFSET 40.960209 0.000000 0.000000
												CHANNELS 3 Xrotation Yrotation Zrotation
												End Site
												{
													OFFSET 0 0 0
												}
											}
										}
									}
								}
							}
						}
						JOINT RightShoulder_virtual
						{
							OFFSET 0.000000 0.000000 0.000000
							CHANNELS 3 Xrotation Yrotation Zrotation
							JOINT RightShoulder
							{
								OFFSET -6.292450 5.785301 -0.669000
								CHANNELS 3 Xrotation Yrotation Zrotation
								JOINT RightShoulder_split
								{
									OFFSET -6.292450 5.785301 -0.669000
									CHANNELS 3 Xrotation Yrotation Zrotation
									JOINT RightArm
									{
										OFFSET -13.907140 -6.093903 1.965100
										CHANNELS 3 Xrotation Yrotation Zrotation
										JOINT RightForeArm
										{
											OFFSET -34.140198 0.000000 0.000000
											CHANNELS 3 Xrotation Yrotation Zrotation
											JOINT RightHand
											{
												OFFSET -40.960209 0.000000 0.000000
												CHANNELS 3 Xrotation Yrotation Zrotation
												End Site
												{
													OFFSET 0 0 0
												}
											}
										}
									}
								}
							}
						}
					}
				}
			}
		}
	}
}
MOTION
Frames: 6
Frame Time: 0.03333333
5.290953 101.301682 0.051216 0.000000 0.000000 0.000000 158.718092 -87.081872 159.360089 -26.391969 31.807184 37.753881 28.191251 -12.933149 0.999070 -8.143954 6.833347 -19.976654 -0.957419 -0.550845 -0.464498 0.000000 0.000000 0.000000 167.971960 -87.140073 169.143310 -43.567799 -7.808708 -23.635269 22.556015 9.660836 -3.861241 11.983035 12.057494 19.037221 2.326969 0.620169 1.334594 0.000000 0.000000 0.000000 64.105239 -88.890404 65.120649 6.177058 -0.027877 -7.311886 1.209629 0.059539 -0.875898 0.903567 0.397843 0.275451 0.000000 0.000000 0.000000 1.897242 -0.345550 -1.290620 -10.456094 4.856073 3.797945 29.247102 75.447485 -32.402749 0.000000 0.000000 0.000000 3.125807 -0.474888 -0.825086 5.554982 -4.190608 11.104217 -2.150342 -3.592234 1.293236 -38.405624 5.935702 4.464658 -4.018044 -10.306339 -0.156976 0.000000 0.000000 0.000000 2.631089 -0.375615 -1.463695 -1.569445 0.397708 -18.646377 2.473842 1.863980 6.556513 -61.189028 53.781046 54.226672 179.754815 41.283876 -178.783658 0.000000 0.000000 0.000000 
5.299174 101.302773 0.068565 0.000000 0.000000 0.000000 159.004468 -87.081401 159.650904 -26.403420 31.790631 37.769802 28.196334 -12.941320 1.001004 -8.141942 6.825131 -19.973164 -0.953881 -0.549951 -0.465538 0.000000 0.000000 0.000000 168.149531 -87.170214 169.329337 -43.543340 -7.765929 -23.633947 22.497875 9.661042 -3.865497 11.981159 12.070246 19.077861 2.291565 0.614573 1.329941 0.000000 0.000000 0.000000 65.453430 -88.908723 66.495826 6.179981 -0.030108 -7.307143 1.208740 0.038733 -0.882862 0.874833 0.308274 0.270562 0.000000 0.000000 0.000000 1.905299 -0.360757 -1.289524 -10.432472 4.844743 3.796638 29.317767 75.517440 -32.507237 0.000000 0.000000 0.000000 3.128380 -0.493393 -0.823307 5.564057 -4.210854 11.136083 -2.086784 -3.573188 1.343878 -38.394771 5.959553 4.454257 -3.984897 -10.334998 -0.140826 0.000000 0.000000 0.000000 2.619042 -0.395992 -1.457180 -1.574231 0.352742 -18.677880 2.430122 1.875825 6.522138 -61.363492 53.848419 54.297316 179.739105 41.214072 -178.784860 0.000000 0.000000 0.000000 
5.300759 101.293053 0.086433 0.000000 0.000000 0.000000 159.301294 -87.075240 159.959766 -26.408541 31.753420 37.770902 28.202703 -12.951818 1.000832 -8.133135 6.826536 -19.983950 -0.942868 -0.548521 -0.469036 0.000000 0.000000 0.000000 168.141458 -87.201585 169.329419 -43.516781 -7.753585 -23.653008 22.457001 9.626015 -3.866134 11.904566 12.049219 19.080591 2.315422 0.616307 1.334883 0.000000 0.000000 0.000000 65.332446 -88.906216 66.402587 6.189545 -0.032175 -7.293500 1.219248 -0.000321 -0.887854 0.861650 0.244500 0.283950 0.000000 0.000000 0.000000 1.921098 -0.397129 -1.289674 -10.384591 4.802675 3.818565 29.635904 75.637761 -32.886845 0.000000 0.000000 0.000000 3.140513 -0.534853 -0.823374 5.582262 -4.226016 11.193885 -2.037019 -3.574530 1.430873 -38.399324 6.074423 4.360990 -3.953667 -10.438701 -0.128421 0.000000 0.000000 0.000000 2.620358 -0.436866 -1.446847 -1.579998 0.291439 -18.733913 2.396757 1.860020 6.507293 -61.568992 53.942580 54.363893 179.718150 41.192345 -178.801184 0.000000 0.000000 0.000000 
5.296214 101.274872 0.100109 0.000000 0.000000 0.000000 159.556238 -87.055365 160.230241 -26.405260 31.699407 37.756934 28.209486 -12.960113 0.997518 -8.116153 6.833939 -20.003976 -0.925498 -0.546203 -0.475783 0.000000 0.000000 0.000000 167.887839 -87.227308 169.085499 -43.503657 -7.770031 -23.696211 22.441527 9.574429 -3.861258 11.793263 12.011067 19.069033 2.363446 0.625501 1.342946 0.000000 0.000000 0.000000 63.785320 -88.882672 64.878594 6.205607 -0.036321 -7.273654 1.239258 -0.059230 -0.889982 0.870984 0.208449 0.318914 0.000000 0.000000 0.000000 1.939170 -0.456826 -1.290591 -10.317066 4.733361 3.864183 30.178815 75.808591 -33.513273 0.000000 0.000000 0.000000 3.156399 -0.602234 -0.824603 5.609302 -4.233264 11.284603 -2.012776 -3.590479 1.523457 -38.430951 6.283065 4.200343 -3.929914 -10.592128 -0.116044 0.000000 0.000000 0.000000 2.630877 -0.499674 -1.432789 -1.587966 0.215315 -18.810601 2.367922 1.816781 6.510188 -61.761986 54.030194 54.429067 179.695556 41.225557 -178.829556 0.000000 0.000000 0.000000 
5.286499 101.254906 0.110489 0.000000 0.000000 0.000000 159.659551 -87.021453 160.346996 -26.398893 31.629838 37.733442 28.207855 -12.960484 0.989267 -8.090272 6.839383 -20.025804 -0.903682 -0.543232 -0.484417 0.000000 0.000000 0.000000 167.360863 -87.248495 168.567607 -43.507844 -7.804078 -23.764945 22.450482 9.535333 -3.849224 11.683957 11.980323 19.087997 2.375112 0.639658 1.348906 0.000000 0.000000 0.000000 61.374188 -88.842757 62.486539 6.225541 -0.043701 -7.247777 1.264268 -0.140599 -0.889275 0.884996 0.210052 0.338528 0.000000 0.000000 0.000000 1.951857 -0.541556 -1.291740 -10.233916 4.638298 3.933706 30.887102 76.017403 -34.314290 0.000000 0.000000 0.000000 3.172265 -0.698216 -0.827235 5.645562 -4.229848 11.412339 -2.009824 -3.626024 1.589313 -38.497029 6.569200 3.995444 -3.916063 -10.756301 -0.100947 0.000000 0.000000 0.000000 2.642901 -0.585378 -1.415353 -1.598859 0.124766 -18.905841 2.341168 1.762660 6.520045 -61.932365 54.073873 54.506323 179.678494 41.306853 -178.866986 0.000000 0.000000 0.000000 
5.274327 101.240349 0.112801 0.000000 0.000000 0.000000 159.455861 -86.984877 160.147691 -26.387205 31.545147 37.704632 28.193551 -12.950178 0.975917 -8.056270 6.833302 -20.039888 -0.879696 -0.541013 -0.492741 0.000000 0.000000 0.000000 166.614118 -87.268699 167.826846 -43.515531 -7.841651 -23.848982 22.476867 9.523754 -3.834069 11.597759 11.957119 19.153271 2.326328 0.655373 1.348937 0.000000 0.000000 0.000000 58.527386 -88.791954 59.653971 6.244054 -0.053672 -7.214894 1.288652 -0.247951 -0.887915 0.879423 0.251381 0.336820 0.000000 0.000000 0.000000 1.954444 -0.652800 -1.294616 -10.142803 4.519798 4.022385 31.702548 76.246583 -35.217186 0.000000 0.000000 0.000000 3.185206 -0.822861 -0.830172 5.691679 -4.213631 11.574772 -2.027937 -3.680084 1.630297 -38.597751 6.905117 3.760841 -3.910604 -10.899538 -0.080870 0.000000 0.000000 0.000000 2.648487 -0.696156 -1.395067 -1.614199 0.025476 -19.021966 2.320359 1.707870 6.533975 -62.079965 54.051935 54.618878 179.671090 41.412776 -178.904197 0.000000 0.000000 0.000000 
